<?xml version="1.0" encoding="UTF-8"?>
<!-- Generator: Adobe Illustrator 22.1.0, SVG Export Plug-In . SVG Version: 6.00 Build 0)  -->
<svg version="1.1"
     id="Layer_1"
     xmlns="http://www.w3.org/2000/svg"
     xmlns:xlink="http://www.w3.org/1999/xlink"
     x="0px" y="0px"
     width="269"
     height="80"
     viewBox="0 0 269 80"
     preserveAspectRatio="xMidYMid meet"
     style="enable-background:new 0 0 269 80;"
     xml:space="preserve">
<style type="text/css">
	.st0{fill:#FFFFFF;}
	.st1{fill:#334F66;}
	.st2{fill:#003366;}
	.st3{fill:#CC9900;}
</style>
<title>Asset 14</title>
<g>
	<g id="Layer_1-2">
		<path class="st0" d="M22.2,3.3h224.3c5.9,0,10.6,4.8,10.6,10.6v52.2c0,5.9-4.8,10.6-10.6,10.6H22.2c-5.9,0-10.6-4.7-10.6-10.6    V13.9C11.6,8,16.3,3.3,22.2,3.3z"/>
		<path class="st1" d="M246.5,80H22.2c-7.7,0-13.9-6.2-13.9-13.9V13.9C8.3,6.2,14.5,0,22.2,0h224.3c7.7,0,13.9,6.2,13.9,13.9v52.2    C260.4,73.8,254.2,80,246.5,80z M22.2,3.3c-5.9,0-10.6,4.7-10.6,10.6v52.2c0,5.9,4.7,10.6,10.6,10.6h224.3    c5.9,0,10.6-4.7,10.6-10.6V13.9c0-5.9-4.8-10.6-10.6-10.6C246.5,3.3,22.2,3.3,22.2,3.3z"/>
		<path class="st2" d="M74,39.8c0-0.2,0.1-0.4,0.2-0.6c0.2-0.2,0.4-0.3,0.6-0.2h5.6c0.2,0,0.4,0.1,0.6,0.2c0.2,0.1,0.3,0.4,0.3,0.6    v26.5c0,0.6-0.3,0.8-0.9,0.8h-5.6c-0.4,0.1-0.8-0.2-0.8-0.6c0-0.1,0-0.1,0-0.2L74,39.8z"/>
		<path class="st2" d="M87.5,39.8c0-0.2,0.1-0.4,0.2-0.6c0.2-0.2,0.4-0.3,0.6-0.2h6.2c0.2,0,0.4,0,0.6,0.1s0.4,0.3,0.5,0.5    c1.6,2.6,3.2,5.2,4.8,7.7s3.2,5.1,4.8,7.7V39.7c0-0.2,0.1-0.4,0.3-0.5c0.1-0.1,0.3-0.2,0.5-0.2h5.4c0.2,0,0.5,0.1,0.7,0.2    c0.2,0.1,0.3,0.4,0.3,0.6v26.6c0,0.2-0.1,0.4-0.2,0.6c-0.2,0.1-0.4,0.2-0.6,0.2h-6c-0.2,0-0.3-0.1-0.4-0.2s-0.3-0.3-0.4-0.5    l-5-8.3c-1.6-2.7-3.3-5.5-5-8.2v16.3c0,0.2,0,0.5-0.2,0.6c-0.2,0.2-0.4,0.2-0.7,0.2h-5.4c-0.2,0-0.5-0.1-0.6-0.2    c-0.1-0.2-0.2-0.4-0.2-0.6V39.8H87.5z"/>
		<path class="st2" d="M143,53.1c0,1.3-0.2,2.6-0.5,3.8s-0.8,2.3-1.5,3.4c-1.3,2.1-3.1,3.8-5.2,5c-1.1,0.6-2.3,1.1-3.5,1.4    c-1.3,0.3-2.6,0.5-3.9,0.5h-9.3c-0.2,0-0.4,0-0.6-0.2c-0.2-0.1-0.3-0.4-0.3-0.7V39.9c0-0.2,0.1-0.5,0.2-0.6    c0.2-0.2,0.4-0.3,0.7-0.2h9.3c1.3,0,2.6,0.2,3.8,0.5s2.4,0.8,3.4,1.4c1.1,0.6,2.1,1.3,2.9,2.2c0.9,0.8,1.6,1.8,2.3,2.8    c0.6,1.1,1.1,2.2,1.5,3.4C142.8,50.6,143,51.9,143,53.1z M125.6,45.8v14.6h1.6c0.3,0,0.6,0,0.9,0c0.3,0,0.6,0,0.8-0.1    c0.9-0.1,1.8-0.3,2.7-0.7c0.8-0.4,1.5-0.9,2.2-1.5c0.6-0.6,1.1-1.4,1.4-2.2c0.4-0.9,0.5-1.8,0.5-2.8s-0.2-2-0.6-2.9    c-0.4-0.9-0.9-1.7-1.6-2.3c-0.7-0.7-1.5-1.2-2.4-1.5c-0.9-0.4-1.9-0.6-2.9-0.5L125.6,45.8z"/>
		<path class="st2" d="M148,39.8c0-0.2,0.1-0.4,0.2-0.6c0.2-0.2,0.4-0.3,0.6-0.2h5.6c0.2,0,0.4,0.1,0.6,0.2c0.2,0.1,0.3,0.4,0.3,0.6    v26.5c0,0.6-0.3,0.8-0.9,0.8h-5.6c-0.4,0.1-0.8-0.2-0.8-0.6c0-0.1,0-0.1,0-0.2L148,39.8z"/>
		<path class="st2" d="M169.6,39.8c0-0.1,0.1-0.2,0.1-0.2c0.1-0.1,0.2-0.2,0.3-0.2c0.1-0.1,0.2-0.1,0.3-0.2c0.1,0,0.2-0.1,0.3-0.1    h4.9c0.2,0,0.4,0.1,0.6,0.2c0.1,0.1,0.2,0.2,0.3,0.3l0.5,1.1l10,25.7c0.1,0.2,0.1,0.4-0.1,0.6c-0.2,0.2-0.5,0.3-0.7,0.2h-5.4    c-0.2,0-0.5,0-0.7-0.2c-0.2-0.1-0.3-0.3-0.4-0.5c-0.2-0.7-0.5-1.3-0.7-1.9l-0.7-1.9h-10.1c-0.2,0.7-0.5,1.3-0.7,1.9    c-0.2,0.6-0.5,1.3-0.7,1.9c-0.1,0.4-0.5,0.7-1,0.7h-5.6c-0.2,0-0.4-0.1-0.6-0.2c-0.2-0.1-0.2-0.4-0.1-0.6L169.6,39.8z M173,47.9    c-0.2,0.7-0.5,1.3-0.7,2.1s-0.5,1.5-0.7,2.3s-0.5,1.5-0.7,2.2s-0.5,1.4-0.7,2.1h5.8L173,47.9z"/>
		<path class="st2" d="M190.6,39.8c0-0.2,0.1-0.4,0.2-0.6c0.2-0.2,0.4-0.3,0.6-0.2h6.2c0.2,0,0.4,0,0.6,0.1c0.2,0.1,0.4,0.3,0.5,0.5    c1.6,2.6,3.2,5.2,4.8,7.7s3.2,5.1,4.8,7.7V39.7c0-0.2,0.1-0.4,0.3-0.5c0.1-0.1,0.3-0.2,0.5-0.2h5.4c0.2,0,0.5,0.1,0.7,0.2    c0.2,0.1,0.3,0.4,0.3,0.6v26.6c0,0.2,0,0.4-0.2,0.5s-0.4,0.2-0.6,0.2h-6c-0.2,0-0.3-0.1-0.4-0.2c-0.1-0.1-0.3-0.3-0.4-0.5    c-1.7-2.8-3.3-5.5-5-8.3l-5-8.2v16.3c0,0.2-0.1,0.4-0.2,0.6c-0.2,0.2-0.4,0.2-0.7,0.2h-5.4c-0.2,0-0.5-0.1-0.6-0.2    c-0.1-0.2-0.2-0.4-0.2-0.6L190.6,39.8z"/>
		<path class="st2" d="M229.7,39.8c0-0.1,0.1-0.2,0.1-0.2c0.1-0.1,0.2-0.2,0.2-0.2c0.1-0.1,0.2-0.1,0.3-0.2c0.1,0,0.2-0.1,0.3-0.1    h4.9c0.2,0,0.4,0.1,0.6,0.2c0.1,0.1,0.2,0.2,0.3,0.3l0.5,1.1l10,25.7c0.1,0.2,0.1,0.4-0.1,0.6c-0.2,0.2-0.5,0.3-0.7,0.2h-5.4    c-0.2,0-0.5,0-0.7-0.2c-0.2-0.1-0.3-0.3-0.4-0.5c-0.2-0.7-0.5-1.3-0.7-1.9l-0.7-1.9h-10.1c-0.2,0.7-0.5,1.3-0.7,1.9    c-0.2,0.6-0.5,1.3-0.7,1.9c-0.1,0.4-0.5,0.7-1,0.7h-5.6c-0.2,0-0.4-0.1-0.6-0.2c-0.2-0.1-0.2-0.4-0.1-0.6L229.7,39.8z M233.2,47.9    c-0.2,0.7-0.5,1.3-0.7,2.1s-0.5,1.5-0.7,2.3s-0.5,1.5-0.7,2.2s-0.5,1.4-0.7,2.1h5.8L233.2,47.9z"/>
		<path class="st3" d="M27.3,38.9c-0.1-1.8-0.1-3.6,0-5.4c0.6-5,2.4-9.5,6.6-12.6c7-5.4,17.1-4,22.4,3c0.9,1.2,1.6,2.5,2.2,3.9    c1,2.5,1.6,5.3,1.6,8c0,1,0,2.1,0,3.2h2c2,0,2.9,0.9,2.9,2.9v22.7c0.2,1.4-0.8,2.7-2.2,2.8c-0.2,0-0.4,0-0.7,0h-37    c-1.4,0.2-2.7-0.8-2.8-2.2c0-0.2,0-0.4,0-0.6V41.7c-0.2-1.4,0.8-2.6,2.2-2.8c0.2,0,0.4,0,0.6,0H27.3z M33.1,38.9h21    c0-1.2,0-2.3,0-3.4c0-2-0.4-4.1-1.2-5.9c-2.1-5.2-7.9-7.7-13.1-5.6c-2.5,1-4.5,3-5.5,5.6C33,32.5,32.9,35.7,33.1,38.9L33.1,38.9z"/>
		<path class="st1" d="M75.1,21.6h24.1c0.5,0,0.9,0.4,0.9,0.9V24c0,0.5-0.4,0.9-0.9,0.9H75.1c-0.5,0-0.9-0.4-0.9-0.9v-1.5    C74.2,22,74.6,21.6,75.1,21.6z"/>
		<path class="st1" d="M221.7,21.6h23.9c0.5,0,0.9,0.4,0.9,0.9V24c0,0.5-0.4,0.9-0.9,0.9h-23.9c-0.5,0-0.9-0.4-0.9-0.9v-1.5    C220.9,22,221.3,21.6,221.7,21.6z"/>
		<path class="st0" d="M37.5,46.5c-0.1-0.2-0.2-0.5-0.2-0.8c0-0.5,0.4-0.9,0.8-1.1l0.6-0.3c0.2-0.2,0.5-0.3,0.8-0.3    c0.4,0,0.8,0.3,1,0.7l2.9,5l2.9-5c0.1-0.2,0.3-0.4,0.5-0.5s0.4-0.2,0.6-0.2c0.3,0,0.5,0.1,0.8,0.3l0.6,0.3    c0.4,0.2,0.7,0.6,0.8,1.1c0,0.3-0.1,0.6-0.3,0.8l-2.9,5h6.4c0.3,0,0.7,0.1,0.9,0.3c0.3,0.3,0.4,0.6,0.4,1v0.7    c0,0.3-0.1,0.7-0.3,0.9c-0.2,0.3-0.6,0.5-1,0.4h-6.5l3.3,5.7c0.1,0.2,0.2,0.4,0.2,0.6c0,0.2-0.1,0.4-0.2,0.6    c-0.1,0.2-0.3,0.4-0.5,0.4l-0.6,0.4c-0.2,0.1-0.5,0.2-0.8,0.2c-0.2,0-0.4,0-0.6-0.1c-0.2-0.1-0.3-0.3-0.5-0.5l-3.3-5.6L40,62.2    c-0.1,0.2-0.3,0.4-0.5,0.5s-0.4,0.1-0.6,0.1c-0.3,0-0.5-0.1-0.8-0.2l-0.6-0.4c-0.2-0.1-0.4-0.2-0.5-0.4s-0.2-0.4-0.2-0.6    c0-0.2,0.1-0.5,0.2-0.7l3.2-5.7h-5.9c-0.7,0.1-1.3-0.4-1.4-1c0-0.1,0-0.2,0-0.3v-0.7c0-0.9,0.5-1.3,1.4-1.3h6L37.5,46.5z"/>
		<path class="st1" d="M117.3,21.5h1V21c0-3-1.7-4-4-4c-1.5,0-2.9,0.4-4.2,1.2c-0.5,0.3-1.2,0.2-1.6-0.3l-0.1-0.1l-0.3-0.5    c-0.4-0.5-0.3-1.2,0.2-1.5c0.1,0,0.1-0.1,0.2-0.1c1.8-1,3.9-1.6,6-1.6c4.6,0,7.2,2.5,7.2,7.2v10.4c0.1,0.6-0.3,1.1-0.9,1.2    c-0.1,0-0.2,0-0.3,0h-0.9c-0.6,0.1-1.1-0.3-1.2-0.9c0-0.1,0-0.2,0-0.3v-1.1c0-0.4,0-0.8,0.1-1.1h-0.1c-1.1,2.3-3.4,3.8-6,3.8    c-3.2,0-6.2-2-6.2-5.5C106.4,22.1,113.5,21.5,117.3,21.5z M113.3,30.5c3.1,0,5-3.1,5-5.8v-0.8h-1c-2.6,0-7.4,0.2-7.4,3.7    C109.9,29,111.1,30.5,113.3,30.5L113.3,30.5z"/>
		<path class="st1" d="M135.2,14.1c2.2-0.1,4.3,0.6,6.1,1.9c0.5,0.2,0.7,0.8,0.4,1.3c-0.1,0.1-0.1,0.2-0.2,0.3l-0.4,0.5    c-0.4,0.7-1,0.7-1.6,0.3c-1.2-0.9-2.6-1.4-4.1-1.4c-3.5-0.1-6.3,2.7-6.4,6.1c0,0.1,0,0.3,0,0.4c-0.1,3.5,2.6,6.5,6.1,6.6    c0.1,0,0.2,0,0.4,0c1.7,0,3.4-0.6,4.7-1.7c0.4-0.4,1-0.4,1.4,0c0.1,0.1,0.2,0.2,0.2,0.3l0.3,0.5c0.4,0.5,0.3,1.2-0.2,1.5l-0.1,0.1    c-1.9,1.5-4.2,2.3-6.5,2.2c-5.2,0.2-9.6-3.8-9.8-8.9c0-0.2,0-0.5,0-0.7c-0.1-5.2,4.1-9.5,9.3-9.6C134.9,14,135,14,135.2,14.1z"/>
		<path class="st1" d="M154.3,14.1c2.2,0,4.3,0.7,6.1,2c0.5,0.3,0.7,0.9,0.4,1.4c0,0.1-0.1,0.1-0.2,0.2l-0.4,0.5    c-0.4,0.7-0.9,0.7-1.6,0.3c-1.2-0.9-2.6-1.4-4.1-1.4c-3.5-0.1-6.3,2.7-6.4,6.1c0,0.1,0,0.3,0,0.4c-0.1,3.5,2.6,6.5,6.1,6.6    c0.1,0,0.2,0,0.4,0c1.7,0,3.3-0.6,4.7-1.7c0.4-0.4,1-0.4,1.4,0c0.1,0.1,0.2,0.2,0.2,0.3l0.3,0.5c0.4,0.5,0.3,1.2-0.2,1.5    c0,0-0.1,0-0.1,0.1c-1.9,1.5-4.2,2.2-6.5,2.2c-5.8,0-9.8-4.1-9.8-9.6c-0.1-5.2,4-9.5,9.3-9.6C153.9,14,154.1,14,154.3,14.1z"/>
		<path class="st1" d="M172.8,14.1c5.1,0,7.9,3.6,7.9,8.7c0,0.7-0.6,1.2-1.2,1.2h-12.3c0,3.4,2.8,6.2,6.2,6.2c0.1,0,0.1,0,0.2,0    c1.6,0,3.1-0.5,4.4-1.5c0.5-0.4,1.1-0.3,1.5,0.2c0.1,0.1,0.1,0.1,0.1,0.2l0.3,0.5c0.4,0.5,0.3,1.1-0.2,1.5c0,0-0.1,0.1-0.2,0.1    c-1.8,1.3-4,2-6.2,2c-5.2,0.2-9.5-3.8-9.7-9c0-0.2,0-0.4,0-0.6C163.6,17.8,167.6,14.1,172.8,14.1z M177.2,21.7    c-0.1-3.2-2-4.9-4.5-4.9c-2.7,0-4.9,1.8-5.4,4.9H177.2z"/>
		<path class="st1" d="M183.6,29.7l0.4-0.5c0.5-0.6,0.9-0.6,1.7-0.2c1.3,0.9,2.9,1.4,4.5,1.5c1.8,0,3.1-0.9,3.1-2.4    c0-3.6-9.5-2.4-9.5-8.6c0-3.5,3.1-5.3,6.6-5.3c1.8,0,3.6,0.5,5.1,1.4c0.5,0.2,0.8,0.8,0.6,1.3c0,0.1-0.1,0.2-0.2,0.3l-0.3,0.5    c-0.4,0.7-0.9,0.7-1.6,0.4c-1.1-0.7-2.4-1-3.7-1c-1.8,0-3.1,0.8-3.1,2.3c0,3.7,9.5,2.4,9.5,8.6c0,3.1-2.6,5.4-6.6,5.4    c-2.2,0-4.4-0.7-6.2-2c-0.5-0.3-0.7-0.9-0.4-1.5C183.5,29.8,183.5,29.7,183.6,29.7z"/>
		<path class="st1" d="M199.5,29.7l0.4-0.5c0.5-0.6,0.9-0.6,1.7-0.2c1.3,0.9,2.9,1.4,4.5,1.5c1.8,0,3.1-0.9,3.1-2.4    c0-3.6-9.5-2.4-9.5-8.6c0-3.5,3.1-5.3,6.6-5.3c1.8,0,3.6,0.5,5.1,1.4c0.5,0.2,0.8,0.8,0.6,1.3c0,0.1-0.1,0.2-0.2,0.3l-0.3,0.5    c-0.4,0.7-0.9,0.7-1.6,0.4c-1.1-0.7-2.4-1-3.7-1c-1.7,0-3.1,0.8-3.1,2.3c0,3.7,9.5,2.4,9.5,8.6c0,3.1-2.6,5.4-6.6,5.4    c-2.2,0-4.4-0.7-6.2-2c-0.5-0.3-0.7-0.9-0.4-1.5C199.4,29.8,199.5,29.7,199.5,29.7z"/>
	</g>
</g>
<g>
	<path class="st0" d="M260.4,4.6c0-0.8,0.2-1.5,0.6-2.2s0.9-1.2,1.6-1.6s1.4-0.6,2.2-0.6c0.8,0,1.5,0.2,2.2,0.6s1.2,0.9,1.6,1.6   s0.6,1.4,0.6,2.2s-0.2,1.5-0.6,2.2S267.7,8,267,8.4S265.6,9,264.8,9c-0.8,0-1.6-0.2-2.2-0.6C262,8,261.4,7.5,261,6.8   S260.4,5.3,260.4,4.6z M261.3,4.6c0,0.6,0.2,1.2,0.5,1.8s0.8,1,1.3,1.3s1.1,0.5,1.8,0.5c0.6,0,1.2-0.2,1.8-0.5s1-0.8,1.3-1.3   s0.5-1.1,0.5-1.8c0-0.6-0.2-1.2-0.5-1.8s-0.8-1-1.3-1.3S265.5,1,264.8,1c-0.6,0-1.2,0.2-1.8,0.5s-1,0.8-1.3,1.3   C261.4,3.3,261.3,3.9,261.3,4.6z M265.1,2.9c-0.4,0-0.7,0.1-0.9,0.4s-0.3,0.7-0.3,1.2c0,1.1,0.4,1.6,1.2,1.6c0.2,0,0.5,0,0.7-0.1   s0.5-0.1,0.7-0.3V7c-0.5,0.2-1,0.3-1.5,0.3c-0.8,0-1.4-0.2-1.9-0.7s-0.7-1.2-0.7-2c0-0.9,0.2-1.5,0.6-2s1-0.7,1.8-0.7   c0.6,0,1.2,0.2,1.8,0.5l-0.4,1C265.9,3,265.5,2.9,265.1,2.9z"/>
</g>
</svg>
