<svg xmlns="http://www.w3.org/2000/svg"
     viewBox="0 0 313.03967 73.9632">
  <path id="Bloomington" d="M81.73694,38.17112h8.897a25.747,25.747,0,0,1,3.93946.21973,5.79592,5.79592,0,0,1,2.32275.91894,5.70365,5.70365,0,0,1,1.708,1.85938,5.039,5.039,0,0,1,.68359,2.60351,5.275,5.275,0,0,1-3.12793,4.82813,5.85927,5.85927,0,0,1,3.12793,2.01954,5.36149,5.36149,0,0,1,1.09279,3.35546,6.61836,6.61836,0,0,1-.70607,2.95312,5.94328,5.94328,0,0,1-1.92772,2.292,6.36974,6.36974,0,0,1-3.01368,1.05567q-1.12427.12159-5.42041.15137H81.737Zm4.49414,3.7041v5.14649h2.94531q2.62573,0,3.26416-.0752a2.973,2.973,0,0,0,1.814-.79785,2.3482,2.3482,0,0,0,.66063-1.73828,2.44533,2.44533,0,0,0-.56932-1.67774,2.5787,2.5787,0,0,0-1.69288-.78125q-.668-.07619-3.8413-.07618Zm0,8.85156V56.678h4.15967a20.36911,20.36911,0,0,0,3.082-.13672,2.78121,2.78121,0,0,0,1.63184-.8877,2.73638,2.73638,0,0,0,.63037-1.89062,2.9046,2.9046,0,0,0-.48584-1.7002,2.74822,2.74822,0,0,0-1.40429-1.01758,15.3062,15.3062,0,0,0-3.98535-.31836ZM104.298,60.428V38.35374h4.49365V56.678h11.17431v3.75Zm17.96-10.99219a14.15192,14.15192,0,0,1,1.01756-5.708,10.47659,10.47659,0,0,1,2.07226-3.05176,8.67041,8.67041,0,0,1,2.877-2.0039,12.22123,12.22123,0,0,1,4.79736-.88086,10.45155,10.45155,0,0,1,7.87207,3.05176q2.95239,3.05126,2.95313,8.48632,0,5.39064-2.93018,8.43457a10.37,10.37,0,0,1-7.834,3.044,10.47468,10.47468,0,0,1-7.895-3.02929Q122.2577,54.74925,122.25794,49.43577Zm4.63086-.15137a8.3395,8.3395,0,0,0,1.7456,5.73145,6.00345,6.00345,0,0,0,8.48186.37535q.18855-.17257.36189-.3607,1.7234-1.93506,1.72315-5.80665,0-3.82617-1.67774-5.709a6.21536,6.21536,0,0,0-8.789-.12387q-.074.072-.1456.14634Q126.88829,45.4431,126.8888,49.2844Zm19.5542.15137a14.15175,14.15175,0,0,1,1.01756-5.708,10.47659,10.47659,0,0,1,2.07226-3.05176,8.67041,8.67041,0,0,1,2.877-2.0039,12.22123,12.22123,0,0,1,4.79736-.88086,10.44967,10.44967,0,0,1,7.87158,3.05176q2.95313,3.05126,2.95313,8.48632,0,5.39064-2.92969,8.43457a10.36853,10.36853,0,0,1-7.834,3.044,10.47464,10.47464,0,0,1-7.895-3.02929Q146.44276,54.74925,146.443,49.43577Zm4.63084-.15137a8.33956,8.33956,0,0,0,1.7456,5.73145,6.00288,6.00288,0,0,0,8.48105.37566q.18872-.17271.36222-.361,1.72265-1.93506,1.72461-5.80665,0-3.82617-1.67774-5.709a6.21651,6.21651,0,0,0-8.7906-.1232q-.07368.07162-.14495.14567-1.70066,1.90578-1.70018,5.74708ZM171.47815,60.428V38.17112h6.72559l4.03906,15.18164L186.235,38.17112h6.74121V60.428h-4.17481V42.90745l-4.418,17.52051h-4.32708L175.654,42.90745V60.428Zm25.82614,0V38.17112h4.49317V60.428Zm8.82035,0V38.17112h4.37207l9.10937,14.86328V38.17112h4.17578V60.428H219.2721l-8.97266-14.51465V60.428Zm32.76266-8.1836v-3.75h9.68652v8.86719A12.21216,12.21216,0,0,1,244.482,59.7678a14.89026,14.89026,0,0,1-5.42774,1.04A12.17182,12.17182,0,0,1,232.9664,59.342a9.31376,9.31376,0,0,1-3.90137-4.18945,13.53439,13.53439,0,0,1-1.30566-5.92872,12.81162,12.81162,0,0,1,1.457-6.17968,9.82026,9.82026,0,0,1,4.2666-4.14453,11.503,11.503,0,0,1,5.32813-1.1084,10.63707,10.63707,0,0,1,6.47558,1.73828,7.84954,7.84954,0,0,1,2.998,4.80566l-4.46289.835a4.71675,4.71675,0,0,0-1.76856-2.58886,5.34826,5.34826,0,0,0-3.24218-.94922,6.091,6.091,0,0,0-4.6836,1.86815,7.86258,7.86258,0,0,0-1.73829,5.541q0,3.96242,1.76173,5.94433a5.88021,5.88021,0,0,0,4.61524,1.98047,7.74133,7.74133,0,0,0,2.83105-.55371,9.68489,9.68489,0,0,0,2.43652-1.34375V52.24436Zm18.84183,8.1836V41.93577h-6.60449V38.17112h17.6875v3.76465H262.2233V60.428Zm12.51172-10.99219a14.16115,14.16115,0,0,1,1.0166-5.708,10.48611,10.48611,0,0,1,2.07226-3.05176,8.68523,8.68523,0,0,1,2.877-2.0039,12.22372,12.22372,0,0,1,4.79785-.88086,10.45152,10.45152,0,0,1,7.87207,3.05176q2.95313,3.05126,2.95312,8.48632,0,5.39064-2.93066,8.43457a10.36847,10.36847,0,0,1-7.834,3.044,10.47356,10.47356,0,0,1-7.89454-3.02929Q270.24083,54.74925,270.24085,49.43577Zm4.62988-.15137a8.33965,8.33965,0,0,0,1.74609,5.73145,6.00348,6.00348,0,0,0,8.48188.37535q.18851-.17257.36187-.3607,1.72266-1.93506,1.72364-5.80665,0-3.82617-1.67774-5.709a6.21536,6.21536,0,0,0-8.789-.12387q-.074.072-.1456.14634Q274.87122,45.4431,274.87073,49.2844ZM295.38245,60.428V38.17112h4.37207l9.10937,14.86328V38.17112h4.17578V60.428h-4.50976l-8.9726-14.51465V60.428Z" fill="#182d5a"/>
  <path id="City_Of" data-name="City Of" d="M95.33264,24.10081l2.55762.646A8.60952,8.60952,0,0,1,94.99671,29.552a7.97245,7.97245,0,0,1-5.10888,1.65478,9.18213,9.18213,0,0,1-5.08252-1.272,7.94735,7.94735,0,0,1-2.97949-3.68506A13.14739,13.14739,0,0,1,80.8043,21.0686a11.38775,11.38775,0,0,1,1.15332-5.2666,7.90574,7.90574,0,0,1,3.28321-3.415,9.59444,9.59444,0,0,1,4.68652-1.1665A7.92313,7.92313,0,0,1,94.8053,12.697a7.66777,7.66777,0,0,1,2.75537,4.15283l-2.51807.59326a5.97293,5.97293,0,0,0-1.95117-3.07177,5.19931,5.19931,0,0,0-3.21679-.96241A6.24933,6.24933,0,0,0,86.15,14.47678a5.64021,5.64021,0,0,0-2.10254,2.8672A11.54782,11.54782,0,0,0,83.441,21.0554a11.78,11.78,0,0,0,.71875,4.3042,5.34816,5.34816,0,0,0,2.23438,2.749,6.267,6.267,0,0,0,3.28271.90968A5.50077,5.50077,0,0,0,93.31555,27.779,6.34206,6.34206,0,0,0,95.33264,24.10081Zm6.14356,6.77636V11.55h2.55762V30.87717Zm11.98388,0V13.83079h-6.36767V11.55h15.31934v2.28076h-6.394V30.87717Zm17.02,0v-8.187L123.03137,11.55h3.11133l3.81006,5.82714q1.05471,1.63478,1.96436,3.26954.87009-1.51612,2.10937-3.41455L137.77063,11.55h2.97949l-7.7124,11.14013v8.187Zm18.82862-9.41308a10.50215,10.50215,0,0,1,2.584-7.53418,8.786,8.786,0,0,1,6.67138-2.72266,9.25339,9.25339,0,0,1,4.82422,1.27881,8.35131,8.35131,0,0,1,3.27637,3.56592,11.57878,11.57878,0,0,1,1.12791,5.188,11.38841,11.38841,0,0,1-1.1875,5.26025,8.10016,8.10016,0,0,1-3.36131,3.51367,9.60487,9.60487,0,0,1-4.69336,1.19287,9.13879,9.13879,0,0,1-4.87793-1.31835,8.484,8.484,0,0,1-3.25635-3.59913A10.90741,10.90741,0,0,1,149.30872,21.46409Zm2.63672.03955a7.74542,7.74542,0,0,0,1.8784,5.50439,6.55411,6.55411,0,0,0,9.26717.17952q.10146-.09762.19866-.19952a8.207,8.207,0,0,0,1.86622-5.76123,9.9116,9.9116,0,0,0-.79787-4.12011,6.128,6.128,0,0,0-2.334-2.72852,6.32061,6.32061,0,0,0-3.44727-.96924,6.54121,6.54121,0,0,0-4.67381,1.86573q-1.957,1.86546-1.9575,6.22894Zm19.27392,9.37353V11.55h13.03906v2.28076H173.777v5.98535h9.07033V22.0969H173.777v8.78027Z" fill="#182d5a"/>
  <path id="logo" d="M43.0553.005V13.651l6.66-6.661V21.286l-6.648,6.336-6.674-7.149-7.462,7.148-6.508-6.823V7.152l6.661,6.661V.167L29.0053,0l7.383,6.827ZM16.2501,10.8894l-4.549-4.55v5.848H6.5021l4.549,4.387-4.385,4.224h13.712V7.0724Zm45.8114,5.8202,4.549-4.55h-5.847V6.9616l-4.387,4.548-4.224-4.385v13.712h13.726ZM35.7184,67.1362l7.383,6.827-.079-.166V60.1502l6.661,6.661V53.1652l-6.508-6.823-7.463,7.148-6.673-7.149-6.649,6.337v14.295l6.661-6.661v13.646Zm20.1372-4.0614,4.55,4.548v-5.847h5.198l-4.548-4.387,4.385-4.224H51.7286v13.726ZM10.0452,57.2551l-4.549,4.549h5.847v5.198l4.387-4.548,4.224,4.385V53.1271H6.2282ZM6.827,36.8102,0,44.1932l.167-.079H13.813l-6.661,6.661H20.798l6.823-6.508-7.148-7.463,7.149-6.673-6.336-6.649H6.99l6.661,6.661H.005Zm59.1773.6255,6.827-7.384-.167.079H59.0193l6.66-6.661H52.0333l-6.823,6.509,7.148,7.462-7.149,6.673,6.336,6.649h14.296l-6.66-6.66h13.646Z" fill="#182d5a"/>
</svg>
