<?xml version="1.0" encoding="UTF-8" standalone="no"?>
<!-- Created with Inkscape (http://www.inkscape.org/) -->

<svg
   xmlns:dc="http://purl.org/dc/elements/1.1/"
   xmlns:cc="http://creativecommons.org/ns#"
   xmlns:rdf="http://www.w3.org/1999/02/22-rdf-syntax-ns#"
   xmlns:svg="http://www.w3.org/2000/svg"
   xmlns="http://www.w3.org/2000/svg"
   xmlns:sodipodi="http://sodipodi.sourceforge.net/DTD/sodipodi-0.dtd"
   xmlns:inkscape="http://www.inkscape.org/namespaces/inkscape"
   version="1.1"
   viewBox="0 0 16 16"
   id="svg4214"
   inkscape:version="0.91 r13725"
   sodipodi:docname="danger.svg">
  <defs
     id="defs4228" />
  <sodipodi:namedview
     pagecolor="#ffffff"
     bordercolor="#666666"
     borderopacity="1"
     objecttolerance="10"
     gridtolerance="10"
     guidetolerance="10"
     inkscape:pageopacity="0"
     inkscape:pageshadow="2"
     inkscape:window-width="1659"
     inkscape:window-height="1054"
     id="namedview4226"
     showgrid="false"
     inkscape:zoom="19.79899"
     inkscape:cx="8.2806797"
     inkscape:cy="0.44768625"
     inkscape:window-x="0"
     inkscape:window-y="0"
     inkscape:window-maximized="0"
     inkscape:current-layer="svg4214" />
  <path
     style="fill:#590001;fill-rule:evenodd;fill-opacity:0.94117647"
     d="M 8.234375 0.00390625 A 7.9999999 7.9999999 0 0 0 0 8 A 8 8 0 0 0 16 8 A 7.9999999 7.9999999 0 0 0 8.234375 0.00390625 z M 8 3 C 9.445336 3 9.5 4.2148438 9.5 4.2148438 L 9.5 6 L 8.75 9 L 7.25 9 L 6.5 6 L 6.5 4.2148438 C 6.5 4.2148438 6.554664 3 8 3 z M 8 10.5 C 8.831 10.5 9.5 11.169 9.5 12 C 9.5 12.831 8.831 13.5 8 13.5 C 7.169 13.5 6.5 12.831 6.5 12 C 6.5 11.169 7.169 10.5 8 10.5 z "
     id="path4239" />
  <metadata
     id="metadata4221">
    <rdf:RDF>
      <cc:Work
         rdf:about="">
        <dc:title></dc:title>
      </cc:Work>
    </rdf:RDF>
  </metadata>
</svg>
