<?xml version="1.0" encoding="UTF-8" standalone="no"?>
<svg
   xmlns:dc="http://purl.org/dc/elements/1.1/"
   xmlns:cc="http://creativecommons.org/ns#"
   xmlns:rdf="http://www.w3.org/1999/02/22-rdf-syntax-ns#"
   xmlns:svg="http://www.w3.org/2000/svg"
   xmlns="http://www.w3.org/2000/svg"
   id="svg4214"
   viewBox="0 0 16 16"
   version="1.1">
  <defs
     id="defs4228" />
  <metadata
     id="metadata4216">
    <rdf:RDF>
      <cc:Work
         rdf:about="">
        <dc:format>image/svg+xml</dc:format>
        <dc:type
           rdf:resource="http://purl.org/dc/dcmitype/StillImage" />
        <dc:title></dc:title>
      </cc:Work>
    </rdf:RDF>
  </metadata>
  <path
     id="path4321"
     d="M 7.9804688 1.234375 L 3.9921875 8.1425781 L 0.00390625 15.048828 L 7.9804688 15.048828 L 15.955078 15.048828 L 11.96875 8.1425781 L 7.9804688 1.234375 z M 8 5.4492188 C 9.1185719 5.4492188 9.1601562 6.390625 9.1601562 6.390625 L 9.1601562 7.7714844 L 8.5800781 10.09375 L 7.4199219 10.09375 L 6.8398438 7.7714844 L 6.8398438 6.390625 C 6.8398438 6.390625 6.8814286 5.4492188 8 5.4492188 z M 8 11.253906 C 8.6431261 11.253906 9.1601562 11.770937 9.1601562 12.414062 C 9.1601562 13.05719 8.6431261 13.576172 8 13.576172 C 7.3568739 13.576172 6.8398438 13.057189 6.8398438 12.414062 C 6.8398438 11.770936 7.3568739 11.253906 8 11.253906 z "
     style="fill:#e17704;fill-opacity:1;stroke:none;stroke-width:5;stroke-linejoin:miter;stroke-miterlimit:4;stroke-dasharray:none;stroke-opacity:1" />
</svg>
